<?xml version="1.0" encoding="UTF-8"?>
<svg version="1.1" xmlns="http://www.w3.org/2000/svg" width="32" height="32">
<path d="M0 0 C4.8846525 2.26787438 7.73212562 5.1153475 10 10 C10.75381535 15.5997712 10.77303575 20.33499991 8.375 25.5 C3.80134327 30.3143755 0.6912538 32.25156236 -6 32.5 C-12.6912538 32.25156236 -15.80134327 30.3143755 -20.375 25.5 C-22.77303575 20.33499991 -22.75381535 15.5997712 -22 10 C-17.52212837 0.3553534 -9.85292056 -1.32635469 0 0 Z " fill="#375394" transform="translate(22,0)"/>
<path d="M0 0 C0.66 0.33 1.32 0.66 2 1 C1.67 2.98 1.34 4.96 1 7 C0.34 7 -0.32 7 -1 7 C-1 8.65 -1 10.3 -1 12 C-1.99 12.33 -2.98 12.66 -4 13 C-4 11.35 -4 9.7 -4 8 C-4.66 10.64 -5.32 13.28 -6 16 C-7.32 16.33 -8.64 16.66 -10 17 C-9.73343428 19.93443402 -9.73343428 19.93443402 -9 23 C-8.01 23.66 -7.02 24.32 -6 25 C-6.33 26.65 -6.66 28.3 -7 30 C-8.625 30.8125 -8.625 30.8125 -11 31 C-14.76131497 28.36707952 -17.32738439 26.34415443 -19 22 C-19.66071926 16.48376242 -19.73198334 11.5765795 -17.375 6.5 C-11.95317493 0.79281572 -7.73563729 -0.94374775 0 0 Z " fill="#3A569A" transform="translate(19,0)"/>
<path d="M0 0 C0.33 0 0.66 0 1 0 C0.979375 1.11375 0.95875 2.2275 0.9375 3.375 C0.73619282 6.83215921 0.73619282 6.83215921 2 9 C2.66 9 3.32 9 4 9 C4 9.66 4 10.32 4 11 C5.32 10.67 6.64 10.34 8 10 C8.22036864 13.85645121 7.60355101 16.49223216 6 20 C5.34 20 4.68 20 4 20 C4.495 20.78375 4.99 21.5675 5.5 22.375 C7 25 7 25 7 27 C3.04 27 -0.92 27 -5 27 C-5 26.34 -5 25.68 -5 25 C-4.34 24.67 -3.68 24.34 -3 24 C-2.34786708 21.97536745 -2.34786708 21.97536745 -2 20 C-2.9590625 19.690625 -2.9590625 19.690625 -3.9375 19.375 C-6 18 -6 18 -6.875 15 C-6.91625 14.01 -6.9575 13.02 -7 12 C-6.34 11.34 -5.68 10.68 -5 10 C-4.01 10.33 -3.02 10.66 -2 11 C-1.7834375 9.1128125 -1.7834375 9.1128125 -1.5625 7.1875 C-1.26251314 4.57332877 -0.84186703 2.52560108 0 0 Z " fill="#F0E4E2" transform="translate(15,5)"/>
<path d="M0 0 C2.0625 2.3125 2.0625 2.3125 4 5 C3.67 5.99 3.34 6.98 3 8 C3.99 8.33 4.98 8.66 6 9 C8.25 10.75 8.25 10.75 10 13 C9.75 15.75 9.75 15.75 9 18 C7.375 18.8125 7.375 18.8125 5 19 C-1.80933852 14.23346304 -1.80933852 14.23346304 -3 10 C-2.63134691 6.40563236 -1.41743321 3.30734415 0 0 Z " fill="#3E6A99" transform="translate(3,12)"/>
<path d="M0 0 C0.33 0 0.66 0 1 0 C0.979375 1.11375 0.95875 2.2275 0.9375 3.375 C0.73619282 6.83215921 0.73619282 6.83215921 2 9 C2.66 9 3.32 9 4 9 C4 9.66 4 10.32 4 11 C5.32 10.67 6.64 10.34 8 10 C8.25 12.3125 8.25 12.3125 8 15 C5.62130509 17.65315971 4.32875347 17.98103345 0.75 18.1875 C-0.61125 18.0946875 -0.61125 18.0946875 -2 18 C-2.33 17.01 -2.66 16.02 -3 15 C-3.66 14.67 -4.32 14.34 -5 14 C-5 13.01 -5 12.02 -5 11 C-4.01 11 -3.02 11 -2 11 C-1.7834375 9.1128125 -1.7834375 9.1128125 -1.5625 7.1875 C-1.26251314 4.57332877 -0.84186703 2.52560108 0 0 Z " fill="#DAD8C5" transform="translate(15,5)"/>
<path d="M0 0 C4.61515678 4.49681942 6.16049544 6.31780716 6.3125 12.75 C6.27312728 18.21624616 5.75989879 21.02524985 2 25 C1.01 25.33 0.02 25.66 -1 26 C-0 22 -0 22 0.52734375 20.296875 C1.16997483 17.1740066 1.13174986 14.18593438 1.125 11 C1.12757812 9.783125 1.13015625 8.56625 1.1328125 7.3125 C1.02616155 4.65249989 0.79307874 2.51771029 0 0 Z " fill="#37B2FA" transform="translate(26,3)"/>
<path d="M0 0 C1.65 0.33 3.3 0.66 5 1 C4.67 2.98 4.34 4.96 4 7 C3.34 7 2.68 7 2 7 C2 8.65 2 10.3 2 12 C1.01 12.33 0.02 12.66 -1 13 C-1 11.35 -1 9.7 -1 8 C-1.66 10.64 -2.32 13.28 -3 16 C-4.32 16.33 -5.64 16.66 -7 17 C-7.33 17.99 -7.66 18.98 -8 20 C-8.66 20 -9.32 20 -10 20 C-9.29445932 16.33118845 -7.72264494 13.29549466 -6 10 C-5.34 10 -4.68 10 -4 10 C-4 8.68 -4 7.36 -4 6 C-3.34 6 -2.68 6 -2 6 C-1.855625 5.38125 -1.71125 4.7625 -1.5625 4.125 C-1 2 -1 2 0 0 Z " fill="#4C62A0" transform="translate(16,0)"/>
<path d="M0 0 C2.0625 2.3125 2.0625 2.3125 4 5 C3.67 5.99 3.34 6.98 3 8 C3.66 8.33 4.32 8.66 5 9 C4.01 10.32 3.02 11.64 2 13 C0.68 12.67 -0.64 12.34 -2 12 C-3.01911045 8.10885099 -3.16782969 6.39403493 -1.5625 2.625 C-1.046875 1.75875 -0.53125 0.8925 0 0 Z " fill="#324E88" transform="translate(3,12)"/>
<path d="M0 0 C4.75 0.875 4.75 0.875 7 2 C7 3.32 7 4.64 7 6 C6.01 6 5.02 6 4 6 C4 6.99 4 7.98 4 9 C3.34 9 2.68 9 2 9 C2 9.99 2 10.98 2 12 C1.34 12 0.68 12 0 12 C0 12.66 0 13.32 0 14 C-0.66 14 -1.32 14 -2 14 C-1.67 11.69 -1.34 9.38 -1 7 C-0.34 7 0.32 7 1 7 C1.33 5.02 1.66 3.04 2 1 C1.34 0.67 0.68 0.34 0 0 Z " fill="#364E89" transform="translate(19,0)"/>
<path d="M0 0 C0.66 0 1.32 0 2 0 C2 0.66 2 1.32 2 2 C2.66 2 3.32 2 4 2 C4 1.34 4 0.68 4 0 C4.99 0.33 5.98 0.66 7 1 C7.66 2.65 8.32 4.3 9 6 C5.04 6 1.08 6 -3 6 C-3 5.34 -3 4.68 -3 4 C-2.34 3.67 -1.68 3.34 -1 3 C-0.67 2.01 -0.34 1.02 0 0 Z " fill="#BFB9B8" transform="translate(13,26)"/>
<path d="M0 0 C0.33 0.99 0.66 1.98 1 3 C-0.65 3.66 -2.3 4.32 -4 5 C-4.03738281 5.61488281 -4.07476562 6.22976562 -4.11328125 6.86328125 C-4.21189453 8.07564453 -4.21189453 8.07564453 -4.3125 9.3125 C-4.39951172 10.51326172 -4.39951172 10.51326172 -4.48828125 11.73828125 C-5.08206694 14.36272334 -5.95780294 15.30820672 -8 17 C-8.42034404 10.90501137 -8.07814737 7.87112047 -4 3 C-1.75 1.125 -1.75 1.125 0 0 Z " fill="#339CD3" transform="translate(8,1)"/>
<path d="M0 0 C1.10844919 3.32534757 0.84454356 5.62182575 0 9 C-0.639375 9.103125 -1.27875 9.20625 -1.9375 9.3125 C-2.9584375 9.6528125 -2.9584375 9.6528125 -4 10 C-4.33 10.99 -4.66 11.98 -5 13 C-5.66 13 -6.32 13 -7 13 C-6.29445932 9.33118845 -4.72264494 6.29549466 -3 3 C-2.34 3 -1.68 3 -1 3 C-0.67 2.01 -0.34 1.02 0 0 Z " fill="#62688B" transform="translate(13,7)"/>
<path d="M0 0 C0.86625 0.37125 0.86625 0.37125 1.75 0.75 C1.110625 1.513125 0.47125 2.27625 -0.1875 3.0625 C-2.39232781 5.63246713 -2.39232781 5.63246713 -3.25 8.75 C-4.57 8.42 -5.89 8.09 -7.25 7.75 C-6.66524269 3.65669884 -4.62230386 -0.51358932 0 0 Z " fill="#344C93" transform="translate(11.25,7.25)"/>
<path d="M0 0 C-0.33 0.99 -0.66 1.98 -1 3 C-3.0625 3.6875 -3.0625 3.6875 -5 4 C-5 4.66 -5 5.32 -5 6 C-5.66 6 -6.32 6 -7 6 C-7 5.34 -7 4.68 -7 4 C-7.66 3.67 -8.32 3.34 -9 3 C-6.40821726 0.40821726 -3.54324677 -1.77162338 0 0 Z " fill="#ECDCD8" transform="translate(22,22)"/>
<path d="M0 0 C0.99 0 1.98 0 3 0 C3.33 1.65 3.66 3.3 4 5 C2.68 5.33 1.36 5.66 0 6 C-0.66 4.68 -1.32 3.36 -2 2 C-1.34 1.34 -0.68 0.68 0 0 Z " fill="#1D2028" transform="translate(22,25)"/>
<path d="M0 0 C0.33 0.66 0.66 1.32 1 2 C2.32 1.67 3.64 1.34 5 1 C5 2.65 5 4.3 5 6 C4.01 6.33 3.02 6.66 2 7 C0.5393715 4.35261084 0 3.10551666 0 0 Z " fill="#B1AEA2" transform="translate(18,14)"/>
<path d="M0 0 C1.5625 1.25 1.5625 1.25 3 3 C2.6875 5.1875 2.6875 5.1875 2 7 C0.68 6.34 -0.64 5.68 -2 5 C-1.34 3.35 -0.68 1.7 0 0 Z " fill="#1E212A" transform="translate(8,24)"/>
<path d="M0 0 C1.32 0.66 2.64 1.32 4 2 C2.6875 4 2.6875 4 1 6 C0.01 6 -0.98 6 -2 6 C-1.34 4.02 -0.68 2.04 0 0 Z " fill="#2A3A6F" transform="translate(4,19)"/>
<path d="M0 0 C-0.125 1.875 -0.125 1.875 -1 4 C-4.0625 5.25 -4.0625 5.25 -7 6 C-7 5.34 -7 4.68 -7 4 C-2.52941176 0 -2.52941176 0 0 0 Z " fill="#2A386B" transform="translate(26,21)"/>
</svg>
